# xmcd
#
# Track frame offsets: 
#        150
#        13288
#        32228
#        44060
#        56520
#        68735
#        83968
#        97650
#        110115
#        122620
#        134230
#        145630
#        158328
#        176880
#        196185
#        209785
#        220390
#        235233
#
# Disc length: 3357 seconds
#
# Revision: 6
# Processed by: cddbd v1.5.2PL0 Copyright (c) Steve Scherf et al.
# Submitted via: ExactAudioCopy v0.99pb5
#
DISCID=100d1b12
DTITLE=Various Artist - The History Of Country Music - The Seventies - CD 2
DYEAR=1993
DGENRE=Country
TTITLE0=Lynn Anderson - Rose garden
TTITLE1=Tom T. Hall - Old dogs, children and watermelon wine
TTITLE2=Conway Twitty - Linda on my mind
TTITLE3=Jerry Lee Lewis - There must be more to love than this
TTITLE4=Charlie Rich - The most beautiful girl
TTITLE5=Mel Tillis - Coca-Cola cowboy
TTITLE6=Barbara Fairchild - The teddy bear song
TTITLE7=Waylon Jennings - I'm a ramblin' man
TTITLE8=Hank Williams Jr. - Eleven roses
TTITLE9=Billy 'Crash' Craddock - Rub it in
TTITLE10=Dave and Sugar - Golden tears
TTITLE11=Don Williams - You're my best friend
TTITLE12=Johnny Cash - Sunday morning coming down
TTITLE13=Marty Robbins - El Paso City
TTITLE14=Loretta Lynn - Coal miner's daughter
TTITLE15=Willie Nelson - Blue eyes cryin in the rain
TTITLE16=Donna Fargo - You can't be a beacon (if you're light don't sh
TTITLE16=ine)
TTITLE17=Freddy Fender - Secret love
EXTD=\nYEAR: 2002  ID3G:   2
EXTT0=
EXTT1=
EXTT2=
EXTT3=
EXTT4=
EXTT5=
EXTT6=
EXTT7=
EXTT8=
EXTT9=
EXTT10=
EXTT11=
EXTT12=
EXTT13=
EXTT14=
EXTT15=
EXTT16=
EXTT17=
PLAYORDER=
